<svg data-name="Layer 1" viewBox="0 0 80 80" xmlns="http://www.w3.org/2000/svg"><path d="M11 32v-7a14 14 0 0 1 14-14h7" fill="none" stroke="#ffffff" stroke-linecap="round" stroke-linejoin="round" stroke-width="4px" class="stroke-000000"></path><path d="m26 5 6 6-6 6M69 48v7a14 14 0 0 1-14 14h-7" fill="none" stroke="#ffffff" stroke-linecap="round" stroke-linejoin="round" stroke-width="4px" class="stroke-000000"></path><path d="m54 75-6-6 6-6M31.384 25.113a20 20 0 1 1 23.5 23.5" fill="none" stroke="#ffffff" stroke-linecap="round" stroke-linejoin="round" stroke-width="4px" class="stroke-000000"></path><circle cx="29" cy="51" r="20" fill="none" stroke="#ffffff" stroke-linecap="round" stroke-linejoin="round" stroke-width="4px" class="stroke-000000"></circle><path d="M43.064 50.212a2.94 2.94 0 0 0-.3-.374l-.275-.23a2.924 2.924 0 0 0-.531-.352 3.732 3.732 0 0 0-.5-.251 11.408 11.408 0 0 0-1.85-.623 28.79 28.79 0 0 0-3.561-.642c-1.562-.2-3.12-.3-4.676-.357a.2.2 0 0 1-.191-.2v-1.419a.4.4 0 0 1 .4-.4h7.82a1.6 1.6 0 0 0 1.6-1.6V42.6a1.6 1.6 0 0 0-1.6-1.6H18.6a1.6 1.6 0 0 0-1.6 1.6v1.164a1.6 1.6 0 0 0 1.6 1.6h7.818a.4.4 0 0 1 .4.4v1.415a.2.2 0 0 1-.192.2c-1.556.05-3.114.153-4.677.35a28.639 28.639 0 0 0-3.561.648 11.417 11.417 0 0 0-1.85.627 3.738 3.738 0 0 0-.5.252 2.929 2.929 0 0 0-.531.352l-.275.231a2.941 2.941 0 0 0-.3.374 1.925 1.925 0 0 0 0 2.308 2.952 2.952 0 0 0 .3.376l.275.233a2.965 2.965 0 0 0 .53.356 3.779 3.779 0 0 0 .5.256 11.512 11.512 0 0 0 1.848.642 28.759 28.759 0 0 0 3.561.677 50.48 50.48 0 0 0 4.686.39.2.2 0 0 1 .19.2V63.4a1.6 1.6 0 0 0 1.6 1.6h1.164a1.6 1.6 0 0 0 1.6-1.6v-7.755a.2.2 0 0 1 .19-.2 50.14 50.14 0 0 0 4.686-.39 28.758 28.758 0 0 0 3.561-.678 11.509 11.509 0 0 0 1.848-.642 3.778 3.778 0 0 0 .5-.256 2.965 2.965 0 0 0 .53-.356l.275-.233a2.944 2.944 0 0 0 .3-.376 1.922 1.922 0 0 0 0-2.307ZM29 52.756c-6.124 0-11.089-.631-11.089-1.409 0-.674 3.723-1.237 8.7-1.376a.2.2 0 0 1 .21.2V51.4a.6.6 0 0 0 .6.6h3.164a.6.6 0 0 0 .6-.6v-1.228a.2.2 0 0 1 .21-.2c4.974.139 8.7.7 8.7 1.376-.006.777-4.971 1.408-11.095 1.408Z" fill="#ffffff" class="fill-000000"></path></svg>